<?xml version="1.0" encoding="utf-8"?>
<!-- Generator: Adobe Illustrator 21.1.0, SVG Export Plug-In . SVG Version: 6.00 Build 0)  -->
<svg version="1.1" id="Layer_1" xmlns="http://www.w3.org/2000/svg" xmlns:xlink="http://www.w3.org/1999/xlink" x="0px" y="0px"
	 viewBox="0 0 576.1 338.3" style="enable-background:new 0 0 576.1 338.3;" xml:space="preserve">
<style type="text/css">
	.st0{fill:#C5DA75;}
	.st1{fill:#FFFFFF;}
	.st2{fill:#FFFFFF;stroke:#996A51;stroke-width:6.1795;stroke-miterlimit:10;}
</style>
<rect x="-3.4" y="-2" class="st0" width="584" height="364"/>
<g>
	<polygon class="st1" points="81,257.4 116.9,257.4 116.9,253.2 81,253.2 81,228.4 120.9,228.4 120.9,224.2 76.3,224.2 76.3,286.8 
		121.4,286.8 121.4,282.6 81,282.6 	"/>
	<path class="st1" d="M161.1,265.6c-1.4-1-3-1.8-4.8-2.4c-1.8-0.6-3.6-1.2-5.5-1.7c-1.6-0.5-3.2-1-4.7-1.5c-1.6-0.5-2.9-1.1-4.1-1.7
		c-1.2-0.7-2.1-1.4-2.8-2.4c-0.7-0.9-1.1-2-1.1-3.3v-0.2c0-2.3,0.9-4.2,2.8-5.7c1.9-1.5,4.4-2.3,7.6-2.3c2.4,0,4.9,0.4,7.3,1.3
		c2.4,0.8,4.7,1.9,6.8,3.3l2.3-3.7c-2.3-1.6-4.9-2.8-7.7-3.7c-2.9-0.9-5.7-1.4-8.5-1.4c-2.2,0-4.2,0.3-6.1,0.9
		c-1.9,0.6-3.4,1.5-4.7,2.6c-1.3,1.1-2.3,2.5-3.1,4c-0.7,1.5-1.1,3.2-1.1,5v0.2c0,2,0.5,3.7,1.4,5.1c0.9,1.4,2.1,2.5,3.6,3.4
		c1.5,0.9,3.2,1.7,5.1,2.3c1.9,0.6,3.7,1.2,5.6,1.7c1.6,0.5,3.1,1,4.6,1.4c1.4,0.5,2.7,1.1,3.8,1.8c1.1,0.7,2,1.5,2.7,2.5
		c0.7,1,1,2.1,1,3.4v0.2c0,2.7-1.1,4.8-3.2,6.3c-2.1,1.5-4.7,2.3-7.8,2.3c-2.9,0-5.8-0.5-8.5-1.6c-2.7-1-5.4-2.5-7.9-4.4l-2.6,3.5
		c2.4,2,5.3,3.6,8.7,4.8c3.3,1.2,6.7,1.9,10,1.9c2.2,0,4.3-0.3,6.2-0.9c1.9-0.6,3.6-1.5,5-2.7c1.4-1.2,2.6-2.6,3.4-4.2
		c0.8-1.6,1.2-3.5,1.2-5.5v-0.2c0-2-0.4-3.7-1.3-5.1C163.7,267.8,162.5,266.6,161.1,265.6z"/>
	<path class="st1" d="M204.7,265.6c-1.4-1-3-1.8-4.8-2.4c-1.8-0.6-3.6-1.2-5.5-1.7c-1.6-0.5-3.2-1-4.7-1.5c-1.6-0.5-2.9-1.1-4.1-1.7
		c-1.2-0.7-2.1-1.4-2.8-2.4c-0.7-0.9-1.1-2-1.1-3.3v-0.2c0-2.3,0.9-4.2,2.8-5.7c1.9-1.5,4.4-2.3,7.6-2.3c2.4,0,4.9,0.4,7.3,1.3
		c2.4,0.8,4.7,1.9,6.8,3.3l2.3-3.7c-2.3-1.6-4.9-2.8-7.7-3.7c-2.9-0.9-5.7-1.4-8.5-1.4c-2.2,0-4.2,0.3-6.1,0.9
		c-1.9,0.6-3.4,1.5-4.7,2.6c-1.3,1.1-2.3,2.5-3.1,4c-0.7,1.5-1.1,3.2-1.1,5v0.2c0,2,0.5,3.7,1.4,5.1c0.9,1.4,2.1,2.5,3.6,3.4
		c1.5,0.9,3.2,1.7,5.1,2.3c1.9,0.6,3.7,1.2,5.6,1.7c1.6,0.5,3.1,1,4.6,1.4c1.4,0.5,2.7,1.1,3.8,1.8c1.1,0.7,2,1.5,2.7,2.5
		c0.7,1,1,2.1,1,3.4v0.2c0,2.7-1.1,4.8-3.2,6.3c-2.1,1.5-4.7,2.3-7.8,2.3c-2.9,0-5.8-0.5-8.5-1.6c-2.7-1-5.4-2.5-7.9-4.4L175,281
		c2.4,2,5.3,3.6,8.7,4.8c3.3,1.2,6.7,1.9,10,1.9c2.2,0,4.3-0.3,6.2-0.9c1.9-0.6,3.6-1.5,5-2.7c1.4-1.2,2.6-2.6,3.4-4.2
		c0.8-1.6,1.2-3.5,1.2-5.5v-0.2c0-2-0.4-3.7-1.3-5.1C207.3,267.8,206.1,266.6,204.7,265.6z"/>
	<path class="st1" d="M257.1,247c-1.8-2.1-4-3.8-6.6-5.1c-2.6-1.2-5.5-1.8-8.7-1.8c-3.1,0-6,0.6-8.6,1.9c-2.6,1.3-4.9,3-6.8,5.1
		c-1.9,2.1-3.5,4.7-4.6,7.6c-1.1,2.9-1.7,6-1.7,9.3v0.2c0,3.6,0.6,6.8,1.8,9.8c1.2,2.9,2.8,5.4,4.9,7.5c2.1,2.1,4.4,3.7,7.2,4.8
		c2.7,1.1,5.6,1.7,8.6,1.7c4.4,0,8-0.8,11-2.5c3-1.6,5.6-3.7,7.9-6.2l-3-2.7c-1.9,2-4.1,3.7-6.6,5.1c-2.5,1.4-5.5,2.1-9.1,2.1
		c-2.3,0-4.4-0.4-6.5-1.2c-2.1-0.8-3.9-2-5.5-3.5c-1.6-1.5-3-3.4-4-5.6c-1.1-2.2-1.7-4.7-1.9-7.6h37.8c0.1-0.4,0.1-0.6,0.1-0.9
		c0-0.2,0-0.5,0-0.9c0-3.4-0.5-6.6-1.5-9.4C260.4,251.7,259,249.1,257.1,247z M224.9,261.8c0.2-2.5,0.7-4.8,1.7-7
		c1-2.2,2.2-4.1,3.6-5.6c1.5-1.6,3.2-2.8,5.1-3.7c2-0.9,4.1-1.3,6.4-1.3c2.6,0,4.9,0.5,6.9,1.5c2,1,3.6,2.3,5,3.9
		c1.3,1.6,2.4,3.5,3.1,5.6c0.7,2.1,1.2,4.3,1.4,6.7H224.9z"/>
	<path class="st1" d="M309.6,245.4c-1.6-1.7-3.5-3-5.8-3.9c-2.3-0.9-4.8-1.4-7.7-1.4c-4.2,0-7.6,0.9-10.2,2.8
		c-2.6,1.9-4.7,4.1-6.3,6.8v-8.5h-4.4v45.7h4.4v-26.4c0-2.4,0.4-4.6,1.2-6.6c0.8-2,1.9-3.7,3.4-5.1c1.4-1.4,3.1-2.6,5-3.4
		c1.9-0.8,4-1.2,6.3-1.2c4.7,0,8.2,1.4,10.7,4.3c2.5,2.8,3.8,6.6,3.8,11.3v27.1h4.4v-27.9c0-2.7-0.4-5.3-1.2-7.6
		C312.4,249,311.2,247,309.6,245.4z"/>
	<rect x="370.2" y="223.3" class="st1" width="5.5" height="6"/>
	<rect x="370.8" y="241.2" class="st1" width="4.4" height="45.7"/>
	<path class="st1" d="M408.1,240.4c-3.2,0-6,0.4-8.6,1.1c-2.6,0.7-5.1,1.7-7.6,2.9l1.6,3.9c2.1-1.1,4.3-2,6.6-2.6
		c2.3-0.7,4.9-1,7.7-1c4.7,0,8.4,1.2,11.1,3.5c2.7,2.3,4,5.8,4,10.4v2c-2.2-0.6-4.5-1.1-6.8-1.4c-2.3-0.4-5.1-0.5-8.3-0.5
		c-3,0-5.7,0.3-8.1,1c-2.4,0.7-4.5,1.6-6.3,2.9c-1.7,1.3-3.1,2.8-4.1,4.7c-1,1.9-1.5,4-1.5,6.4v0.2c0,2.4,0.5,4.5,1.6,6.3
		c1,1.8,2.4,3.3,4.1,4.5c1.7,1.2,3.6,2.1,5.6,2.7c2.1,0.6,4.2,0.9,6.4,0.9c2.1,0,4.1-0.3,6-0.8c1.8-0.5,3.4-1.2,4.9-2
		c1.4-0.8,2.7-1.7,3.8-2.8c1.1-1,2-2.1,2.8-3.2v7.6h4.3v-28.5c0-5.5-1.6-9.8-4.7-12.9C419.1,242.1,414.3,240.4,408.1,240.4z
		 M422.9,269.7c0,2.1-0.5,4-1.4,5.7c-0.9,1.7-2.2,3.2-3.8,4.4c-1.6,1.2-3.4,2.2-5.5,2.9c-2.1,0.7-4.3,1-6.6,1c-1.7,0-3.4-0.2-5-0.7
		c-1.6-0.5-3-1.2-4.3-2.1c-1.2-0.9-2.2-2-2.9-3.3c-0.7-1.3-1.1-2.7-1.1-4.4v-0.2c0-3.2,1.3-5.8,3.9-7.7c2.6-1.9,6.3-2.9,11.1-2.9
		c3.3,0,6.2,0.2,8.8,0.7c2.6,0.4,4.8,0.9,6.7,1.4V269.7z"/>
	<rect x="443.5" y="221.5" class="st1" width="4.4" height="65.4"/>
	<path class="st1" d="M494.4,269.1c-0.9-1.4-2-2.5-3.4-3.5c-1.4-1-3-1.8-4.8-2.4c-1.8-0.6-3.6-1.2-5.5-1.7c-1.6-0.5-3.2-1-4.7-1.5
		c-1.6-0.5-2.9-1.1-4.1-1.7c-1.2-0.7-2.1-1.4-2.8-2.4c-0.7-0.9-1.1-2-1.1-3.3v-0.2c0-2.3,0.9-4.2,2.8-5.7c1.9-1.5,4.4-2.3,7.6-2.3
		c2.4,0,4.9,0.4,7.3,1.3c2.4,0.8,4.7,1.9,6.8,3.3l2.3-3.7c-2.3-1.6-4.9-2.8-7.7-3.7c-2.9-0.9-5.7-1.4-8.5-1.4
		c-2.2,0-4.2,0.3-6.1,0.9c-1.9,0.6-3.4,1.5-4.7,2.6c-1.3,1.1-2.3,2.5-3.1,4c-0.7,1.5-1.1,3.2-1.1,5v0.2c0,2,0.5,3.7,1.4,5.1
		c0.9,1.4,2.1,2.5,3.6,3.4c1.5,0.9,3.2,1.7,5.1,2.3c1.9,0.6,3.7,1.2,5.6,1.7c1.6,0.5,3.1,1,4.6,1.4c1.4,0.5,2.7,1.1,3.8,1.8
		c1.1,0.7,2,1.5,2.7,2.5c0.7,1,1,2.1,1,3.4v0.2c0,2.7-1.1,4.8-3.2,6.3c-2.1,1.5-4.7,2.3-7.8,2.3c-2.9,0-5.8-0.5-8.5-1.6
		c-2.7-1-5.4-2.5-7.9-4.4l-2.6,3.5c2.4,2,5.3,3.6,8.7,4.8c3.3,1.2,6.7,1.9,10,1.9c2.2,0,4.3-0.3,6.2-0.9c1.9-0.6,3.6-1.5,5-2.7
		c1.4-1.2,2.6-2.6,3.4-4.2c0.8-1.6,1.2-3.5,1.2-5.5v-0.2C495.7,272.2,495.3,270.5,494.4,269.1z"/>
	<polygon class="st1" points="347.1,241.7 336.8,241.7 336.8,255.5 323,255.5 323,265.8 336.8,265.8 336.8,279.6 347.1,279.6 
		347.1,265.8 360.9,265.8 360.9,255.5 347.1,255.5 	"/>
</g>
<circle class="st2" cx="285.5" cy="116.6" r="85"/>
<g id="ojcEjn_1_">
	<g>
		<path class="st0" d="M350.3,93.8c0.3,0.7,0.4,1.6,0.1,2.4c0,0.1-0.1,0.2-0.1,0.2c-0.6,1-1.3,2-1.9,3c-0.3,0.5-0.7,1.1-1,1.7
			c-0.4,1-0.7,2-1.3,2.9c-0.7,1.1-1.6,2.2-2.5,3.3c-0.3,0.4-0.8,0.7-1.3,0.6c-0.3,0-0.5,0.3-0.8,0.6c-0.6,0.6-1.3,1.1-1.9,1.7
			c-0.1-0.1-0.1-0.1-0.2-0.2c0.1-0.2,0.2-0.4,0.2-0.6c-0.5,0.2-0.9,0.5-1.3,0.8c-0.4,0.2-0.8,0.3-1.2,0.5c0-0.1-0.1-0.2-0.1-0.2
			c0.3-0.3,0.6-0.7,0.8-1c0-0.1-0.1-0.1-0.1-0.2c-0.7,0.3-1.5,0.6-2.2,0.9c0-0.1-0.1-0.1-0.1-0.2c0.2-0.2,0.3-0.3,0.5-0.5
			c0-0.1-0.1-0.2-0.1-0.2c-0.3,0.1-2.3,1.4-2.9,1.6c-0.1,0-0.1,0-0.1-0.1c0.1-0.4,0.2-1.4-0.3-1.2c-0.2,0.1-0.9,0.5-1.3,0.5
			c0.2-0.3,0.8-1,1-1.1c-0.9,0.4-1.7,0-2.5-0.2c-0.8-0.3-1.5-0.8-2.1-1.2c-0.5,0.1-0.9,0.3-1.2,0.1c-1.6-0.5-3.3,0.2-3.9,1.7
			c-0.4,0.8-0.8,1.6-1.1,2.4c-0.6,1.5-1.1,3.1-1.6,4.7c-0.3,1-0.4,2-0.6,3c-0.4,2-0.9,4-1.3,6.1c-0.2,0.9-0.4,1.8-0.6,2.7
			c-0.2,0.7-0.3,1.4-0.5,2c-0.2,0.8-0.5,1.6-0.8,2.5c-0.4,1.2-0.6,2.5-1.2,3.6c-0.8,1.6-1.9,3.1-2.9,4.7c-0.5,0.8-1.1,1.6-1.1,2.7
			c0,3.4,0,6.8,0,10.2c0,0.3,0.1,0.8,0.3,1.1c0.8,1.3,1.6,2.5,2.3,3.8c0.8,1.4,0.6,3.1-0.6,4.2c-1.9,1.9-4.3,2.7-6.9,2.8
			c-2.3,0.2-4.7,0.1-7.1,0.1c-0.4,0-1.1-0.1-1.5-0.2c-1.5-0.5-2.9-1.1-4.4-1.6c-0.5-0.2-1-0.5-1.6-0.7c-0.2-0.1-0.4,0-0.7,0
			c0-0.2,0.1-0.4,0.2-0.8c-0.4,0.2-0.8,0.3-1.1,0.4c-0.4-0.3-0.6-1.2-1.4-0.5c-0.1-0.1-0.1-0.1-0.2-0.1l0.5-2.4
			c-0.4,0.3-0.6,0.4-0.8,0.5c-0.6-1.5-0.1-2.7,0.7-3.9c-0.1-0.1-0.1-0.1-0.2-0.2c-0.3,0.2-0.7,0.4-1.2,0.6c0.2-0.6,0.3-1,0.5-1.5
			c-0.1,0-0.2,0-0.2-0.1c-0.1,0.2-0.3,0.4-0.4,0.5c-0.1,0-0.2-0.1-0.2-0.1c0.1-0.4,0.2-0.8,0.3-1.2c-1.5-1-0.3-1.9,0.1-2.9
			c-0.2-0.1-0.4-0.2-0.6-0.4c0.4-0.7,0.8-1.3,1.1-1.9c0-0.1-0.1-0.1-0.1-0.2c-0.4,0.2-0.7,0.4-1.3,0.6c0.2-0.6,0.4-1,0.5-1.5
			c-0.4,0-0.6-0.1-1-0.1c0.2-0.3,0.4-0.5,0.5-0.6c-0.2-0.5-0.4-0.8-0.6-1.3c-15-0.8-28-9.4-28.9-8.1c-0.8,1.2-1.6,2.4-2.3,3.6
			c-0.6,1.1-1,2.3-1.7,3.4c-1.4,2.3-3.1,4.3-5.2,6.1c-1.1,0.9-2.2,1.6-3.5,2.1c-0.7,0.3-1.5,0.5-2.1,1c-1.2,0.9-1.1,3.1,0,3.6
			c1.5,0.7,2.8,1.5,3.3,3.3c0.4,1.6,0.2,2.4-1.6,2.9c-0.8,0.2-1.6,0.3-2.4,0.6c-1.3,0.5-2.6,0.9-4,0.9c-0.2,0-0.4,0-0.5,0.1
			c-1.5,0.6-2.9-0.1-4.3-0.4c-1-0.2-1.8-0.9-2.8-1.2c-1.4-0.5-2.4-1.2-2.6-2.9c-0.2-1.2-0.7-1.6-1.8-1.4c0-0.8-0.1-1.5-0.1-2.3
			c-0.3,0.2-0.5,0.4-0.8,0.6c0.4-0.9,0.7-1.6,1-2.3c-0.1,0-0.2-0.1-0.3-0.1c-0.2,0.1-0.4,0.2-0.8,0.4c0.1-0.7,0.2-1.1,0.3-1.6
			c0.1-0.3,0.2-0.7,0.2-1c-0.3,0-0.6,0-1,0c0-0.2,0-0.3,0-0.5c0.4-0.7,0.7-1.4,1.1-2.2c-0.1,0-0.2,0-0.2,0c-0.1-0.4-0.3-0.9-0.3-1.3
			c0.1-0.4,0.5-0.8,0.6-1.3c0.1-0.3,0.1-0.6,0.2-0.9c-0.3,0.1-0.5,0.2-0.9,0.4c0-0.2,0-0.5,0.1-0.7c0.5-0.7,1-1.4,1.5-2.1
			c0.1-0.2,0.1-0.4,0.2-0.6c-0.4,0.1-0.6,0.2-0.8,0.2c-0.1-0.1-0.1-0.1-0.2-0.2c0.6-0.8,1.2-1.7,1.9-2.5c-0.1,0-0.1,0-0.2,0
			c0-0.4-0.1-0.8,0-1.1c0.7-1.4,1.9-2.5,2.4-4.2c0.4-1.6,0.8-3,0.7-4.7c-0.2-0.1-0.5-0.1-0.7-0.2c0.4-1,1-2,1.2-3
			c0.4-2.2,1-4.4,0.9-6.6c-0.3-5.9,0.7-11.9,4-15.5c0.6-0.6,0.9-1.3,0.9-2.1c-0.1-0.9-0.2-1.7-0.3-2.6c-0.1-0.5,0-1.2,0-1.7
			c0.2-1.5,0.5-3,0.6-4.4c0.1-0.7-0.2-1.4-0.3-2.2c-0.2-1.1-0.4-2.2-0.4-3.3c-0.1-1.1-0.1-2.2,0-3.3c0.1-1,2.3-12.5,2.7-13.7
			c0.1-0.4,0.5-0.8,0.8-0.9c0.3-0.1,0.9,0.1,1.1,0.4c0.7,1,1.4,2,1.8,3.1c0.6,1.9,1.1,3.9,1.4,5.9c0.4,2.6,0.4,5.1,0.6,7.7
			c0,0.4,0,0.9,0,1.3c-0.1,2.3,0.8,4.4,1.9,6.3c0.6,1.2,1.5,2.1,3,2c0.7,0,1.5-0.1,2.2-0.1c1.4,0.1,2.9,0,4.3,0.2
			c1.6,0.2,3.2,0.5,4.9,0.7c1.5,0.2,2.9,0.4,4.4,0.4c2.4,0.1,4.8,0.1,7.1,0.1c3.3,0.1,6.6-0.2,9.8-1.5c1.4-0.5,2.9-0.9,4.3-1.3
			c0.7-0.2,1.5-0.3,2.2-0.5c1.1-0.3,2.2-0.5,3.1-1.2c2.4-1.7,5.1-2.8,7.7-4c1.9-0.9,3.5-2.3,4.6-4.1c1.1-1.8,1.9-3.8,3-5.7
			c1.1-1.9,2.1-3.9,3.5-5.6c2.4-3,5.5-5.3,9.3-6.3c0.3-0.1,0.6-0.3,0.7-0.6c0.6-1.8,5.4-7,9.6-8.3c0.2-0.1,0.4,0.1,0.4,0.4
			c-0.2,0.8-0.4,1.5-0.6,2.1c-0.6,2.1-0.9,4.2-0.9,6.3c0,0.2,0.3,0.6,0.5,0.6c1.9,0.1,3.5,1,4.9,2c1.6,1.1,6.4,5.4,7,7.5
			c0.3,0.6,0.5,1.2,0,1.9c-0.3,0.4-0.5,1.1-0.6,1.6c-0.1,0.6-0.1,1.1-0.7,1.4c-0.1,0.1-0.2,0.4-0.1,0.6c0.4,0.6,0.7,1.2,1.2,1.7
			c1.7,1.6,3.9,2.3,5.9,3.3c1.1,0.6,2.5,0.7,3.4,1.9C350.2,93.4,350.2,93.6,350.3,93.8z"/>
	</g>
</g>
</svg>
